<?xml version="1.0" encoding="UTF-8"?>
<!DOCTYPE svg PUBLIC "-//W3C//DTD SVG 1.1//EN" "http://www.w3.org/Graphics/SVG/1.1/DTD/svg11.dtd">
<svg width="400mm" height="225mm" viewBox="0 0 40000 22500" version="1.1" xmlns="http://www.w3.org/2000/svg" stroke-width="28.222" stroke-linejoin="round" xml:space="preserve">
 <path fill="rgb(255,255,255)" stroke="none" d="M 20136,22523 L 114,22523 114,0 40157,0 40157,22523 20136,22523 Z"/>
 <path fill="none" stroke="rgb(179,179,179)" stroke-linejoin="round" d="M 18391,21426 L 1350,21426 1350,649 35431,649 35431,21426 18391,21426 Z"/>
 <path fill="none" stroke="rgb(179,179,179)" stroke-linejoin="round" d="M 35431,21425 L 1350,21425"/>
 <path fill="none" stroke="rgb(179,179,179)" stroke-linejoin="round" d="M 35431,18827 L 1350,18827"/>
 <path fill="none" stroke="rgb(179,179,179)" stroke-linejoin="round" d="M 35431,16230 L 1350,16230"/>
 <path fill="none" stroke="rgb(179,179,179)" stroke-linejoin="round" d="M 35431,13633 L 1350,13633"/>
 <path fill="none" stroke="rgb(179,179,179)" stroke-linejoin="round" d="M 35431,11037 L 1350,11037"/>
 <path fill="none" stroke="rgb(179,179,179)" stroke-linejoin="round" d="M 35431,8439 L 1350,8439"/>
 <path fill="none" stroke="rgb(179,179,179)" stroke-linejoin="round" d="M 35431,5842 L 1350,5842"/>
 <path fill="none" stroke="rgb(179,179,179)" stroke-linejoin="round" d="M 35431,3245 L 1350,3245"/>
 <path fill="none" stroke="rgb(179,179,179)" stroke-linejoin="round" d="M 35431,648 L 1350,648"/>
 <path fill="none" stroke="rgb(179,179,179)" stroke-linejoin="round" d="M 1350,21575 L 1350,21425"/>
 <path fill="none" stroke="rgb(179,179,179)" stroke-linejoin="round" d="M 1350,21575 L 1350,21425"/>
 <path fill="none" stroke="rgb(179,179,179)" stroke-linejoin="round" d="M 5610,21575 L 5610,21425"/>
 <path fill="none" stroke="rgb(179,179,179)" stroke-linejoin="round" d="M 5610,21575 L 5610,21425"/>
 <path fill="none" stroke="rgb(179,179,179)" stroke-linejoin="round" d="M 9870,21575 L 9870,21425"/>
 <path fill="none" stroke="rgb(179,179,179)" stroke-linejoin="round" d="M 9870,21575 L 9870,21425"/>
 <path fill="none" stroke="rgb(179,179,179)" stroke-linejoin="round" d="M 14130,21575 L 14130,21425"/>
 <path fill="none" stroke="rgb(179,179,179)" stroke-linejoin="round" d="M 14130,21575 L 14130,21425"/>
 <path fill="none" stroke="rgb(179,179,179)" stroke-linejoin="round" d="M 18391,21575 L 18391,21425"/>
 <path fill="none" stroke="rgb(179,179,179)" stroke-linejoin="round" d="M 18391,21575 L 18391,21425"/>
 <path fill="none" stroke="rgb(179,179,179)" stroke-linejoin="round" d="M 22650,21575 L 22650,21425"/>
 <path fill="none" stroke="rgb(179,179,179)" stroke-linejoin="round" d="M 22650,21575 L 22650,21425"/>
 <path fill="none" stroke="rgb(179,179,179)" stroke-linejoin="round" d="M 26910,21575 L 26910,21425"/>
 <path fill="none" stroke="rgb(179,179,179)" stroke-linejoin="round" d="M 26910,21575 L 26910,21425"/>
 <path fill="none" stroke="rgb(179,179,179)" stroke-linejoin="round" d="M 31170,21575 L 31170,21425"/>
 <path fill="none" stroke="rgb(179,179,179)" stroke-linejoin="round" d="M 31170,21575 L 31170,21425"/>
 <path fill="none" stroke="rgb(179,179,179)" stroke-linejoin="round" d="M 35431,21575 L 35431,21425"/>
 <path fill="none" stroke="rgb(179,179,179)" stroke-linejoin="round" d="M 35431,21575 L 35431,21425"/>
 <path fill="none" stroke="rgb(179,179,179)" stroke-linejoin="round" d="M 1350,21425 L 35431,21425"/>
 <path fill="none" stroke="rgb(179,179,179)" stroke-linejoin="round" d="M 1200,21425 L 1350,21425"/>
 <path fill="none" stroke="rgb(179,179,179)" stroke-linejoin="round" d="M 1200,21425 L 1350,21425"/>
 <path fill="none" stroke="rgb(179,179,179)" stroke-linejoin="round" d="M 1200,18827 L 1350,18827"/>
 <path fill="none" stroke="rgb(179,179,179)" stroke-linejoin="round" d="M 1200,18827 L 1350,18827"/>
 <path fill="none" stroke="rgb(179,179,179)" stroke-linejoin="round" d="M 1200,16230 L 1350,16230"/>
 <path fill="none" stroke="rgb(179,179,179)" stroke-linejoin="round" d="M 1200,16230 L 1350,16230"/>
 <path fill="none" stroke="rgb(179,179,179)" stroke-linejoin="round" d="M 1200,13633 L 1350,13633"/>
 <path fill="none" stroke="rgb(179,179,179)" stroke-linejoin="round" d="M 1200,13633 L 1350,13633"/>
 <path fill="none" stroke="rgb(179,179,179)" stroke-linejoin="round" d="M 1200,11037 L 1350,11037"/>
 <path fill="none" stroke="rgb(179,179,179)" stroke-linejoin="round" d="M 1200,11037 L 1350,11037"/>
 <path fill="none" stroke="rgb(179,179,179)" stroke-linejoin="round" d="M 1200,8439 L 1350,8439"/>
 <path fill="none" stroke="rgb(179,179,179)" stroke-linejoin="round" d="M 1200,8439 L 1350,8439"/>
 <path fill="none" stroke="rgb(179,179,179)" stroke-linejoin="round" d="M 1200,5842 L 1350,5842"/>
 <path fill="none" stroke="rgb(179,179,179)" stroke-linejoin="round" d="M 1200,5842 L 1350,5842"/>
 <path fill="none" stroke="rgb(179,179,179)" stroke-linejoin="round" d="M 1200,3245 L 1350,3245"/>
 <path fill="none" stroke="rgb(179,179,179)" stroke-linejoin="round" d="M 1200,3245 L 1350,3245"/>
 <path fill="none" stroke="rgb(179,179,179)" stroke-linejoin="round" d="M 1200,648 L 1350,648"/>
 <path fill="none" stroke="rgb(179,179,179)" stroke-linejoin="round" d="M 1200,648 L 1350,648"/>
 <path fill="none" stroke="rgb(179,179,179)" stroke-linejoin="round" d="M 1350,21425 L 1350,648"/>
 <path fill="none" stroke="rgb(126,0,33)" stroke-width="80" stroke-linejoin="round" d="M 1392,21424 L 1435,21424 1477,21424 1520,21424 1563,21424 1605,21424 1648,21424 1690,21424 1733,21424 1776,21424 2202,21424 2628,21424 3054,21424 3480,21424 3906,21424 4332,21424 4758,21424 5184,21424 5610,21424 6036,21424 6462,21424 6888,21424 7314,21424 7740,21424 8166,21424 8592,21424 9018,21424 9444,21424 9870,21424 10296,21424 10722,21424 11148,21424 11574,21424 12000,21424 12426,21424 12852,21424 13278,21424 13704,21424 14130,21424 14556,21424 14982,21424 15408,21424 15834,21424 16260,21424 16686,21424 17112,21424 17538,21424 17964,21424 18391,21424 18817,21424 19243,21424 19669,21424 20095,21424 20520,21424 20946,21424 21372,21424 21798,21424 22224,21424 22650,21424 23076,21424 23502,21424 23928,21424 24354,21424 24780,21424 25206,21424 25632,21424 26058,21424 26484,21424 26910,21424 27336,21424 27762,21424 28188,21424 28614,21424 29040,21424 29466,21424 29892,21424 30318,21424 30744,21424 31170,21424"/>
 <path fill="none" stroke="rgb(87,157,28)" stroke-width="80" stroke-linejoin="round" d="M 1392,21424 L 1435,21424 1477,21424 1520,21424 1563,21424 1605,21424 1648,21424 1690,21424 1733,21424 1776,21424 2202,21424 2628,21423 3054,21424 3480,21424 3906,21423 4332,21423 4758,21423 5184,21422 5610,21422 6036,21421 6462,21420 6888,21420 7314,21419 7740,21418 8166,21417 8592,21416 9018,21415 9444,21415 9870,21413 10296,21412 10722,21410 11148,21409 11574,21407 12000,21406 12426,21405 12852,21403 13278,21400 13704,21399 14130,21397 14556,21394 14982,21392 15408,21390 15834,21388 16260,21385 16686,21383 17112,21380 17538,21378 17964,21376 18391,21372 18817,21368 19243,21364 19669,21360 20095,21357 20520,21353 20946,21349 21372,21345 21798,21341 22224,21337 22650,21333 23076,21328 23502,21324 23928,21319 24354,21313 24780,21309 25206,21305 25632,21298 26058,21291 26484,21284 26910,21276 27336,21271 27762,21264 28188,21256 28614,21248 29040,21243 29466,21234 29892,21226 30318,21219 30744,21210 31170,21202"/>
 <path fill="none" stroke="rgb(255,211,32)" stroke-width="80" stroke-linejoin="round" d="M 1392,21424 L 1435,21424 1477,21424 1520,21424 1563,21424 1605,21424 1648,21424 1690,21424 1733,21424 1776,21424 2202,21424 2628,21424 3054,21424 3480,21423 3906,21423 4332,21421 4758,21418 5184,21412 5610,21414 6036,21410 6462,21404 6888,21397 7314,21388 7740,21376 8166,21363 8592,21348 9018,21330 9444,21287 9870,21263 10296,21255 10722,21221 11148,21181 11574,21135 12000,21085 12426,21029 12852,20967 13278,20895 13704,20754 14130,20739 14556,20520 14982,20551 15408,20440 15834,20319 16260,20139 16686,20044 17112,19765 17538,19543 17964,19500 18391,19344 18817,18718 19243,18908 19669,18634 20095,18307 20520,18077 20946,17854 21372,17521 21798,17164 22224,16815 22650,16434 23076,16039 23502,15473 23928,14695 24354,14673 24780,14141 25206,13610 25632,12663 26058,12442 26484,11783 26910,11166 27336,10463 27762,9726 28188,8402 28614,7895 29040,6825 29466,6420 29892,5248 30318,3862 30744,3492 31170,2528"/>
 <path fill="none" stroke="rgb(255,66,14)" stroke-width="80" stroke-linejoin="round" d="M 1392,21424 L 1435,21424 1477,21424 1520,21424 1563,21424 1605,21424 1648,21424 1690,21424 1733,21424 1776,21424 2202,21424 2628,21424 3054,21424 3480,21424 3906,21424 4332,21424 4758,21421 5184,21423 5610,21422 6036,21421 6462,21420 6888,21418 7314,21417 7740,21413 8166,21412 8592,21408 9018,21404 9444,21400 9870,21394 10296,21388 10722,21381 11148,21374 11574,21364 12000,21353 12426,21341 12852,21330 13278,21314 13704,21299 14130,21282 14556,21261 14982,21240 15408,21216 15834,21189 16260,21161 16686,21131 17112,21099 17538,21060 17964,21024 18391,20981 18817,20937 19243,20887 19669,20834 20095,20783 20520,20721 20946,20658 21372,20586 21798,20514 22224,20435 22650,20349 23076,20269 23502,20173 23928,20077 24354,19969 24780,19863 25206,19765 25632,19624 26058,19496 26484,19357 26910,19221 27336,19065 27762,18912 28188,18733 28614,18573 29040,18399 29466,18201 29892,18019 30318,17799 30744,17593 31170,17364"/>
 <path fill="none" stroke="rgb(0,69,134)" stroke-width="80" stroke-linejoin="round" d="M 1392,21424 L 1435,21424 1477,21424 1520,21424 1563,21424 1605,21424 1648,21424 1690,21424 1733,21424 1776,21424 2202,21424 2628,21424 3054,21424 3480,21424 3906,21423 4332,21423 4758,21421 5184,21420 5610,21419 6036,21416 6462,21413 6888,21409 7314,21403 7740,21398 8166,21391 8592,21382 9018,21371 9444,21358 9870,21344 10296,21329 10722,21309 11148,21287 11574,21259 12000,21230 12426,21198 12852,21159 13278,21111 13704,21077 14130,21028 14556,20980 14982,20922 15408,20855 15834,20792 16260,20722 16686,20634 17112,20549 17538,20454 17964,20294 18391,20244 18817,20119 19243,19985 19669,19870 20095,19717 20520,19557 20946,19330 21372,19236 21798,19017 22224,18816 22650,18602 23076,18405 23502,18149 23928,17896 24354,17628 24780,17294 25206,17016 25632,16752 26058,16423 26484,16026 26910,15679 27336,15158 27762,14879 28188,14455 28614,13975 29040,13522 29466,13040 29892,12467 30318,11992 30744,11419 31170,10840"/>
 <text class="TextShape"><tspan class="TextParagraph" font-family="Liberation Sans, sans-serif" font-size="353px" font-weight="400"><tspan class="TextPosition" x="1257" y="21993"><tspan fill="rgb(0,0,0)" stroke="none">0</tspan></tspan></tspan></text>
 <text class="TextShape"><tspan class="TextParagraph" font-family="Liberation Sans, sans-serif" font-size="353px" font-weight="400"><tspan class="TextPosition" x="5332" y="21993"><tspan fill="rgb(0,0,0)" stroke="none">100</tspan></tspan></tspan></text>
 <text class="TextShape"><tspan class="TextParagraph" font-family="Liberation Sans, sans-serif" font-size="353px" font-weight="400"><tspan class="TextPosition" x="9592" y="21993"><tspan fill="rgb(0,0,0)" stroke="none">200</tspan></tspan></tspan></text>
 <text class="TextShape"><tspan class="TextParagraph" font-family="Liberation Sans, sans-serif" font-size="353px" font-weight="400"><tspan class="TextPosition" x="13852" y="21993"><tspan fill="rgb(0,0,0)" stroke="none">300</tspan></tspan></tspan></text>
 <text class="TextShape"><tspan class="TextParagraph" font-family="Liberation Sans, sans-serif" font-size="353px" font-weight="400"><tspan class="TextPosition" x="18113" y="21993"><tspan fill="rgb(0,0,0)" stroke="none">400</tspan></tspan></tspan></text>
 <text class="TextShape"><tspan class="TextParagraph" font-family="Liberation Sans, sans-serif" font-size="353px" font-weight="400"><tspan class="TextPosition" x="22373" y="21993"><tspan fill="rgb(0,0,0)" stroke="none">500</tspan></tspan></tspan></text>
 <text class="TextShape"><tspan class="TextParagraph" font-family="Liberation Sans, sans-serif" font-size="353px" font-weight="400"><tspan class="TextPosition" x="26633" y="21993"><tspan fill="rgb(0,0,0)" stroke="none">600</tspan></tspan></tspan></text>
 <text class="TextShape"><tspan class="TextParagraph" font-family="Liberation Sans, sans-serif" font-size="353px" font-weight="400"><tspan class="TextPosition" x="30893" y="21993"><tspan fill="rgb(0,0,0)" stroke="none">700</tspan></tspan></tspan></text>
 <text class="TextShape"><tspan class="TextParagraph" font-family="Liberation Sans, sans-serif" font-size="353px" font-weight="400"><tspan class="TextPosition" x="35154" y="21993"><tspan fill="rgb(0,0,0)" stroke="none">800</tspan></tspan></tspan></text>
 <text class="TextShape"><tspan class="TextParagraph" font-family="Liberation Sans, sans-serif" font-size="353px" font-weight="400"><tspan class="TextPosition" x="915" y="21546"><tspan fill="rgb(0,0,0)" stroke="none">0</tspan></tspan></tspan></text>
 <text class="TextShape"><tspan class="TextParagraph" font-family="Liberation Sans, sans-serif" font-size="353px" font-weight="400"><tspan class="TextPosition" x="915" y="18948"><tspan fill="rgb(0,0,0)" stroke="none">2</tspan></tspan></tspan></text>
 <text class="TextShape"><tspan class="TextParagraph" font-family="Liberation Sans, sans-serif" font-size="353px" font-weight="400"><tspan class="TextPosition" x="915" y="16351"><tspan fill="rgb(0,0,0)" stroke="none">4</tspan></tspan></tspan></text>
 <text class="TextShape"><tspan class="TextParagraph" font-family="Liberation Sans, sans-serif" font-size="353px" font-weight="400"><tspan class="TextPosition" x="915" y="13754"><tspan fill="rgb(0,0,0)" stroke="none">6</tspan></tspan></tspan></text>
 <text class="TextShape"><tspan class="TextParagraph" font-family="Liberation Sans, sans-serif" font-size="353px" font-weight="400"><tspan class="TextPosition" x="915" y="11157"><tspan fill="rgb(0,0,0)" stroke="none">8</tspan></tspan></tspan></text>
 <text class="TextShape"><tspan class="TextParagraph" font-family="Liberation Sans, sans-serif" font-size="353px" font-weight="400"><tspan class="TextPosition" x="730" y="8559"><tspan fill="rgb(0,0,0)" stroke="none">10</tspan></tspan></tspan></text>
 <text class="TextShape"><tspan class="TextParagraph" font-family="Liberation Sans, sans-serif" font-size="353px" font-weight="400"><tspan class="TextPosition" x="730" y="5962"><tspan fill="rgb(0,0,0)" stroke="none">12</tspan></tspan></tspan></text>
 <text class="TextShape"><tspan class="TextParagraph" font-family="Liberation Sans, sans-serif" font-size="353px" font-weight="400"><tspan class="TextPosition" x="730" y="3365"><tspan fill="rgb(0,0,0)" stroke="none">14</tspan></tspan></tspan></text>
 <text class="TextShape"><tspan class="TextParagraph" font-family="Liberation Sans, sans-serif" font-size="353px" font-weight="400"><tspan class="TextPosition" x="730" y="768"><tspan fill="rgb(0,0,0)" stroke="none">16</tspan></tspan></tspan></text>
 <path fill="none" stroke="rgb(0,69,134)" stroke-width="80" stroke-linejoin="round" d="M 36812,10265 L 37612,10265"/>
 <path fill="none" stroke="rgb(255,66,14)" stroke-width="80" stroke-linejoin="round" d="M 36812,10763 L 37612,10763"/>
 <path fill="none" stroke="rgb(255,211,32)" stroke-width="80" stroke-linejoin="round" d="M 36812,11261 L 37612,11261"/>
 <path fill="none" stroke="rgb(87,157,28)" stroke-width="80" stroke-linejoin="round" d="M 36812,11758 L 37612,11758"/>
 <path fill="none" stroke="rgb(126,0,33)" stroke-width="80" stroke-linejoin="round" d="M 36812,12256 L 37612,12256"/>
 <text class="TextShape"><tspan class="TextParagraph" font-family="Liberation Sans, sans-serif" font-size="353px" font-weight="400"><tspan class="TextPosition" x="37712" y="10385"><tspan fill="rgb(0,0,0)" stroke="none">Insertion sort</tspan></tspan></tspan></text>
 <text class="TextShape"><tspan class="TextParagraph" font-family="Liberation Sans, sans-serif" font-size="353px" font-weight="400"><tspan class="TextPosition" x="37712" y="10883"><tspan fill="rgb(0,0,0)" stroke="none">Selection sort</tspan></tspan></tspan></text>
 <text class="TextShape"><tspan class="TextParagraph" font-family="Liberation Sans, sans-serif" font-size="353px" font-weight="400"><tspan class="TextPosition" x="37712" y="11380"><tspan fill="rgb(0,0,0)" stroke="none">Bubble sort</tspan></tspan></tspan></text>
 <text class="TextShape"><tspan class="TextParagraph" font-family="Liberation Sans, sans-serif" font-size="353px" font-weight="400"><tspan class="TextPosition" x="37712" y="11878"><tspan fill="rgb(0,0,0)" stroke="none">Merge Sort</tspan></tspan></tspan></text>
 <text class="TextShape"><tspan class="TextParagraph" font-family="Liberation Sans, sans-serif" font-size="353px" font-weight="400"><tspan class="TextPosition" x="37712" y="12376"><tspan fill="rgb(0,0,0)" stroke="none">Quicksort</tspan></tspan></tspan></text>
</svg>